<svg xmlns="http://www.w3.org/2000/svg" xmlns:xlink="http://www.w3.org/1999/xlink" width="768" zoomAndPan="magnify" viewBox="0 0 576 149.999998" height="200" preserveAspectRatio="xMidYMid meet" version="1.0"><defs><clipPath id="b74f28450c"><path d="M 15 35 L 22 35 L 22 43 L 15 43 Z M 15 35 " clip-rule="nonzero"/></clipPath><clipPath id="5c2add9da3"><path d="M 123.03125 -138.742188 L 447.109375 58.730469 L 307.003906 288.65625 L -17.070312 91.183594 Z M 123.03125 -138.742188 " clip-rule="nonzero"/></clipPath><clipPath id="c69b8d5469"><path d="M -17.058594 91.164062 L 307.015625 288.636719 L 447.121094 58.710938 L 123.042969 -138.761719 Z M -17.058594 91.164062 " clip-rule="nonzero"/></clipPath><clipPath id="5283b282f3"><path d="M 13 8 L 433 8 L 433 146 L 13 146 Z M 13 8 " clip-rule="nonzero"/></clipPath><clipPath id="cb4de6b3f0"><path d="M 123.03125 -138.742188 L 447.109375 58.730469 L 307.003906 288.65625 L -17.070312 91.183594 Z M 123.03125 -138.742188 " clip-rule="nonzero"/></clipPath><clipPath id="9fdb3f5183"><path d="M -17.058594 91.164062 L 307.015625 288.636719 L 447.121094 58.710938 L 123.042969 -138.761719 Z M -17.058594 91.164062 " clip-rule="nonzero"/></clipPath><clipPath id="8b2b8fe855"><path d="M 436 60 L 444 60 L 444 67 L 436 67 Z M 436 60 " clip-rule="nonzero"/></clipPath><clipPath id="95825755be"><path d="M 123.03125 -138.742188 L 447.109375 58.730469 L 307.003906 288.65625 L -17.070312 91.183594 Z M 123.03125 -138.742188 " clip-rule="nonzero"/></clipPath><clipPath id="87da1b6dcc"><path d="M -17.058594 91.164062 L 307.015625 288.636719 L 447.121094 58.710938 L 123.042969 -138.761719 Z M -17.058594 91.164062 " clip-rule="nonzero"/></clipPath><clipPath id="005d2ae613"><path d="M 365.761719 30 L 457.105469 30 L 457.105469 75 L 365.761719 75 Z M 365.761719 30 " clip-rule="nonzero"/></clipPath><clipPath id="dd5e9e8761"><path d="M 343.378906 22.5 L 447.628906 22.5 L 447.628906 82.5 L 343.378906 82.5 Z M 343.378906 22.5 " clip-rule="nonzero"/></clipPath><clipPath id="8fbd66f226"><path d="M 379 63 L 393 63 L 393 82.5 L 379 82.5 Z M 379 63 " clip-rule="nonzero"/></clipPath></defs><g clip-path="url(#b74f28450c)"><g clip-path="url(#5c2add9da3)"><g clip-path="url(#c69b8d5469)"><path fill="#b82222" d="M 21.945312 37.242188 L 16.914062 35.40625 C 16.269531 37.472656 15.453125 38.820312 15.527344 40.710938 L 20.832031 42.097656 C 21.203125 40.480469 21.574219 38.863281 21.945312 37.242188 Z M 21.945312 37.242188 " fill-opacity="1" fill-rule="nonzero"/></g></g></g><g clip-path="url(#5283b282f3)"><g clip-path="url(#cb4de6b3f0)"><g clip-path="url(#9fdb3f5183)"><path fill="#b82222" d="M 432.28125 51.128906 C 429.140625 49.214844 425.457031 48.199219 421.496094 47.632812 L 420.832031 52.761719 C 424.066406 53.503906 427.304688 54.246094 429.996094 55.886719 Z M 409.96875 47.371094 C 408.527344 47.722656 407.355469 47.625 406.359375 48.246094 C 403.921875 49.222656 401.484375 50.195312 399.496094 51.445312 L 402.164062 56.144531 C 404.152344 54.898438 406.320312 54.371094 408.035156 53.574219 C 409.03125 52.949219 410.203125 53.046875 410.921875 52.871094 Z M 390.441406 58.226562 C 387.90625 60.371094 385.09375 62.964844 382.734375 65.828125 L 386.671875 69.457031 C 389.035156 66.59375 391.570312 64.449219 394.105469 62.304688 Z M 375.476562 73.707031 L 373.660156 75.675781 C 371.84375 77.644531 370.480469 79.886719 368.664062 81.855469 L 372.875 85.035156 C 374.691406 83.066406 376.054688 80.824219 377.871094 78.855469 L 379.6875 76.886719 Z M 361.851562 90.003906 C 359.042969 92.597656 356.957031 95.015625 353.96875 96.886719 L 356.914062 101.136719 C 359.449219 98.996094 362.261719 96.402344 365.070312 93.808594 Z M 230.316406 17.230469 C 228.96875 16.414062 227.625 15.59375 226.277344 14.773438 L 223.996094 19.53125 C 226.683594 21.171875 229.824219 23.082031 232.515625 24.722656 L 235.695312 20.511719 C 234.351562 19.691406 232.558594 18.597656 230.316406 17.230469 Z M 216.488281 10.652344 C 212.804688 9.636719 209.117188 8.621094 205.609375 8.328125 L 204.941406 13.457031 C 208.453125 13.75 211.691406 14.492188 214.652344 15.683594 Z M 244.292969 27.59375 L 240.664062 31.535156 C 242.632812 33.347656 244.601562 35.164062 246.296875 37.425781 L 247.820312 38.96875 L 251.898438 35.304688 L 250.375 33.761719 C 248.679688 31.5 246.710938 29.683594 244.292969 27.59375 Z M 258.953125 43.90625 L 254.699219 46.851562 C 256.84375 49.386719 258.714844 52.371094 261.035156 55.628906 L 265.289062 52.6875 C 262.96875 49.429688 260.824219 46.890625 258.953125 43.90625 Z M 194.257812 8.789062 C 193.535156 8.964844 192.8125 9.140625 191.644531 9.042969 C 188.757812 9.742188 186.316406 10.714844 183.15625 11.867188 L 185.105469 16.742188 C 187.542969 15.769531 189.980469 14.792969 192.148438 14.269531 C 192.871094 14.09375 193.589844 13.917969 194.3125 13.742188 Z M 345.5625 101.601562 L 344.117188 101.953125 C 341.679688 102.925781 338.792969 103.625 336.179688 103.878906 L 336.683594 109.105469 C 340.019531 108.679688 342.90625 107.976562 346.066406 106.828125 C 346.789062 106.652344 347.0625 106.203125 347.785156 106.03125 Z M 271.175781 61.195312 L 266.921875 64.136719 C 268.792969 67.121094 270.9375 69.65625 273.253906 72.917969 L 277.507812 69.972656 C 275.191406 66.714844 273.046875 64.179688 271.175781 61.195312 Z M 283.941406 77.582031 L 280.136719 80.800781 C 281.832031 83.0625 284.25 85.148438 285.945312 87.414062 L 287.019531 88.683594 L 290.648438 84.742188 L 289.574219 83.476562 C 287.78125 82.382812 285.636719 79.847656 283.941406 77.582031 Z M 326.273438 103.992188 C 323.035156 103.25 319.796875 102.507812 316.558594 101.761719 L 314.722656 106.792969 C 318.410156 107.808594 322.097656 108.824219 325.332031 109.570312 Z M 298.523438 92.003906 L 295.34375 96.214844 C 298.207031 98.574219 301.347656 100.488281 304.488281 102.402344 L 307.21875 97.917969 C 304.082031 96.003906 301.664062 93.914062 298.523438 92.003906 Z M 173.929688 17.925781 C 171.394531 20.070312 168.582031 22.664062 165.773438 25.257812 L 169.710938 28.886719 C 172.074219 26.019531 174.609375 23.875 177.144531 21.730469 Z M 159.136719 34.128906 C 158.589844 35.023438 158.042969 35.921875 157.5 36.820312 C 156.132812 39.0625 154.765625 41.304688 153.847656 43.820312 L 158.605469 46.101562 C 159.972656 43.859375 160.890625 41.34375 161.984375 39.550781 C 162.53125 38.65625 162.800781 38.207031 163.347656 37.308594 Z M 154.308594 55.171875 L 149.28125 53.335938 C 147.816406 56.746094 147.074219 59.984375 146.054688 63.671875 L 151.085938 65.507812 C 152.101562 61.820312 153.292969 58.855469 154.308594 55.171875 Z M 148.136719 75.394531 L 142.832031 74.003906 L 142.363281 76.792969 C 141.445312 79.308594 141.25 81.652344 140.332031 84.164062 L 145.636719 85.554688 C 146.554688 83.039062 146.75 80.699219 147.667969 78.183594 Z M 141.964844 95.617188 L 136.933594 93.78125 C 135.917969 97.464844 134.726562 100.429688 133.535156 103.394531 L 138.292969 105.675781 C 139.484375 102.714844 140.949219 99.300781 141.964844 95.617188 Z M 133.453125 115.640625 L 128.96875 112.910156 C 128.695312 113.359375 128.148438 114.253906 127.875 114.703125 C 126.507812 116.945312 125.140625 119.1875 123.328125 121.15625 L 127.539062 124.335938 C 129.351562 122.367188 130.992188 119.679688 132.359375 117.4375 C 132.632812 116.988281 132.90625 116.539062 133.453125 115.640625 Z M 19.054688 52.082031 L 13.652344 51.867188 C 13.355469 55.378906 13.511719 59.160156 14.386719 62.769531 L 19.613281 62.265625 C 19.1875 58.929688 19.03125 55.144531 19.054688 52.082031 Z M 116.515625 129.304688 C 113.980469 131.449219 111.441406 133.59375 108.457031 135.464844 L 111.128906 140.167969 C 114.113281 138.296875 117.371094 135.976562 120.179688 133.382812 Z M 22.066406 72.367188 L 17.015625 73.59375 C 18.164062 76.753906 19.039062 80.363281 20.636719 83.796875 L 25.515625 81.847656 C 23.917969 78.417969 22.765625 75.257812 22.066406 72.367188 Z M 29.683594 91.15625 L 24.980469 93.824219 C 26.851562 96.808594 28.449219 100.242188 30.320312 103.226562 L 35.023438 100.558594 C 33.152344 97.574219 31.554688 94.140625 29.683594 91.15625 Z M 99.425781 139.1875 C 97.710938 139.984375 95.816406 140.0625 93.925781 140.140625 C 92.480469 140.488281 91.3125 140.390625 89.421875 140.46875 L 89.476562 145.421875 C 91.367188 145.347656 92.8125 144.996094 94.703125 144.917969 C 96.867188 144.394531 98.761719 144.316406 100.925781 143.789062 Z M 40.910156 109.066406 L 36.65625 112.007812 C 38.527344 114.992188 41.121094 117.800781 43.265625 120.339844 L 47.34375 116.675781 C 44.925781 114.585938 42.78125 112.050781 40.910156 109.066406 Z M 79.785156 140.132812 C 76.546875 139.390625 73.585938 138.199219 70.171875 136.734375 L 67.886719 141.492188 C 71.300781 142.957031 74.710938 144.421875 78.398438 145.4375 Z M 54.222656 124.558594 L 50.59375 128.496094 C 53.1875 131.304688 56.050781 133.664062 59.191406 135.578125 L 62.371094 131.367188 C 59.234375 129.453125 56.816406 127.367188 54.222656 124.558594 Z M 54.222656 124.558594 " fill-opacity="1" fill-rule="nonzero"/></g></g></g><g clip-path="url(#8b2b8fe855)"><g clip-path="url(#95825755be)"><g clip-path="url(#87da1b6dcc)"><path fill="#b82222" d="M 440.957031 60.101562 L 436.253906 62.773438 C 436.878906 63.769531 437.675781 65.484375 438.027344 66.929688 L 443.078125 65.703125 C 442.554688 63.535156 442.027344 61.371094 440.957031 60.101562 Z M 440.957031 60.101562 " fill-opacity="1" fill-rule="nonzero"/></g></g></g><g clip-path="url(#005d2ae613)"><path fill="#ffffff" d="M 365.761719 30 L 457.105469 30 L 457.105469 75 L 365.761719 75 Z M 365.761719 30 " fill-opacity="1" fill-rule="nonzero"/></g><g clip-path="url(#dd5e9e8761)"><path fill="#004aad" d="M 343.378906 51.269531 L 447.257812 22.519531 L 414.878906 82.46875 L 385.03125 62.488281 L 447.105469 22.621094 L 381.574219 61.8125 L 377.527344 81.964844 L 369.601562 59.703125 L 447.09375 22.613281 L 368.167969 58.1875 Z M 343.378906 51.269531 " fill-opacity="1" fill-rule="evenodd"/></g><g clip-path="url(#8fbd66f226)"><path fill="#004aad" d="M 379.542969 82.414062 L 392.898438 70.253906 L 384.3125 63.933594 Z M 379.542969 82.414062 " fill-opacity="1" fill-rule="evenodd"/></g></svg>